<svg viewBox="0 0 400 400" fill="none" xmlns="http://www.w3.org/2000/svg">
  <defs>
    <!-- Neon purple glow filter -->
    <filter id="neon-glow" x="-50%" y="-50%" width="200%" height="200%">
      <feGaussianBlur in="SourceAlpha" stdDeviation="6" result="blur"/>
      <feColorMatrix
        type="matrix"
        values="0 0 0 0 0.66
                0 0 0 0 0.33
                0 0 0 0 0.80
                0 0 0 1 0" result="purpleBlur"/>
      <feMerge>
        <feMergeNode in="purpleBlur"/>
        <feMergeNode in="SourceGraphic"/>
      </feMerge>
    </filter>

    <!-- Neon green glow filter -->
    <filter id="neon-green" x="-50%" y="-50%" width="200%" height="200%">
      <feGaussianBlur in="SourceAlpha" stdDeviation="6" result="blur"/>
      <feColorMatrix
        type="matrix"
        values="0 0 0 0 0.0
                0 0 0 0 1.0
                0 0 0 0 0.5
                0 0 0 1 0" result="greenBlur"/>
      <feMerge>
        <feMergeNode in="greenBlur"/>
        <feMergeNode in="SourceGraphic"/>
      </feMerge>
    </filter>
  </defs>

  <!-- Main circular path -->
  <g filter="url(#neon-glow)" transform="translate(20, 20)">
    <path d="M153.833 146.843C161.054 132.322 173.49 121.081 188.64 115.379C203.789 109.678 220.53 109.938 235.496 116.108C250.462 122.277 262.545 133.899 269.314 148.637C276.083 163.375 277.037 180.135 271.985 195.55C266.933 210.964 256.248 223.89 242.08 231.727C227.911 239.565 211.309 241.734 195.61 237.798C179.912 233.862 166.281 224.114 157.458 210.512C148.636 196.91 145.275 180.464 148.053 164.479"
          stroke="white" stroke-width="5" stroke-linecap="round"/>
  </g>

  <!-- Star-like shape with green glow -->
  <g filter="url(#neon-green)" transform="translate(20, 20)">
    <path d="M258.794 198.773L250.803 192.331L250.502 182.051C250.484 181.442 250.281 180.853 249.919 180.364C249.557 179.875 249.054 179.509 248.478 179.316C247.902 179.122 247.281 179.111 246.698 179.282C246.115 179.454 245.599 179.801 245.219 180.276L238.781 188.291L228.529 188.593C227.922 188.611 227.335 188.815 226.847 189.178C226.359 189.541 225.994 190.045 225.801 190.623C225.608 191.2 225.597 191.823 225.768 192.408C225.939 192.992 226.285 193.509 226.759 193.89L234.753 200.346L235.054 210.626C235.072 211.235 235.275 211.823 235.637 212.313C235.999 212.802 236.502 213.168 237.078 213.361C237.654 213.554 238.275 213.566 238.858 213.395C239.44 213.223 239.957 212.876 240.337 212.401L246.775 204.386L257.027 204.084C257.634 204.066 258.221 203.861 258.709 203.499C259.196 203.136 259.561 202.631 259.754 202.054C259.947 201.477 259.959 200.854 259.788 200.269C259.617 199.685 259.271 199.167 258.797 198.786L258.794 198.773ZM246 201.408C245.784 201.414 245.573 201.468 245.379 201.564C245.186 201.661 245.016 201.798 244.881 201.967L238.048 210.494L237.722 199.569C237.716 199.351 237.663 199.137 237.566 198.941C237.469 198.746 237.33 198.574 237.16 198.438L228.66 191.595L239.556 191.269C239.773 191.263 239.987 191.21 240.182 191.112C240.377 191.015 240.548 190.876 240.684 190.705L247.508 182.183L247.834 193.107C247.84 193.324 247.893 193.536 247.99 193.73C248.086 193.923 248.223 194.094 248.391 194.229L256.895 201.082L246 201.408Z"
          fill="white"/>
  </g>

  <!-- Left arc -->
  <g filter="url(#neon-glow)" transform="translate(20, 20)">
    <path d="M215.078 188.746C189.786 179.724 165.105 169.377 144.774 159.274C124.444 149.17 109.57 139.861 102.407 132.755C95.243 125.649 96.181 121.135 105.076 119.895C113.972 118.655 130.342 120.758 151.706 125.884"
          stroke="white" stroke-width="5" stroke-linecap="round"/>
  </g>

  <!-- Right arc -->
  <g filter="url(#neon-glow)" transform="translate(20, 20)">
    <path d="M277.981 207.71C292.92 211.225 305.389 213.235 314.418 213.583C323.447 213.931 328.793 212.609 330.04 209.718C331.288 206.827 328.403 202.446 321.611 196.915C314.818 191.384 304.301 184.853 290.876 177.828"
          stroke="white" stroke-width="5" stroke-linecap="round"/>
  </g>
</svg>
