<svg viewBox="80 120 240 240" fill="none" xmlns="http://www.w3.org/2000/svg">
  <defs>
    <!-- Neon purple glow filter -->
    <filter id="neon-glow" x="-50%" y="-50%" width="200%" height="200%">
      <feGaussianBlur in="SourceAlpha" stdDeviation="6" result="blur"/>
      <feColorMatrix
        type="matrix"
        values="0 0 0 0 0.66
                0 0 0 0 0.33
                0 0 0 0 0.80
                0 0 0 1 0" result="purpleBlur"/>
      <feMerge>
        <feMergeNode in="purpleBlur"/>
        <feMergeNode in="SourceGraphic"/>
      </feMerge>
    </filter>

    <!-- Neon green glow filter -->
    <filter id="neon-green" x="-50%" y="-50%" width="200%" height="200%">
      <feGaussianBlur in="SourceAlpha" stdDeviation="6" result="blur"/>
      <feColorMatrix
        type="matrix"
        values="0 0 0 0 0.0
                0 0 0 0 1.0
                0 0 0 0 0.5
                0 0 0 1 0" result="greenBlur"/>
      <feMerge>
        <feMergeNode in="greenBlur"/>
        <feMergeNode in="SourceGraphic"/>
      </feMerge>
    </filter>
  </defs>

  <!-- Main circular path -->
  <g filter="url(#neon-glow)">
    <path d="M133.833 166.843C141.054 152.322 153.49 141.081 168.64 135.379C183.789 129.678 200.53 129.938 215.496 136.108C230.462 142.277 242.545 153.899 249.314 168.637C256.083 183.375 257.037 200.135 251.985 215.55C246.933 230.964 236.248 243.89 222.08 251.727C207.911 259.565 191.309 261.734 175.61 257.798C159.912 253.862 146.281 244.114 137.458 230.512C128.636 216.91 125.275 200.464 128.053 184.479"
          stroke="white" stroke-width="5" stroke-linecap="round"/>
  </g>

  <!-- Star-like shape with green glow -->
  <g filter="url(#neon-green)">
    <path d="M238.794 218.773L230.803 212.331L230.502 202.051C230.484 201.442 230.281 200.853 229.919 200.364C229.557 199.875 229.054 199.509 228.478 199.316C227.902 199.122 227.281 199.111 226.698 199.282C226.115 199.454 225.599 199.801 225.219 200.276L218.781 208.291L208.529 208.593C207.922 208.611 207.335 208.815 206.847 209.178C206.359 209.541 205.994 210.045 205.801 210.623C205.608 211.2 205.597 211.823 205.768 212.408C205.939 212.992 206.285 213.509 206.759 213.89L214.753 220.346L215.054 230.626C215.072 231.235 215.275 231.823 215.637 232.313C215.999 232.802 216.502 233.168 217.078 233.361C217.654 233.554 218.275 233.566 218.858 233.395C219.44 233.223 219.957 232.876 220.337 232.401L226.775 224.386L237.027 224.084C237.634 224.066 238.221 223.861 238.709 223.499C239.196 223.136 239.561 222.631 239.754 222.054C239.947 221.477 239.959 220.854 239.788 220.269C239.617 219.685 239.271 219.167 238.797 218.786L238.794 218.773ZM226 221.408C225.784 221.414 225.573 221.468 225.379 221.564C225.186 221.661 225.016 221.798 224.881 221.967L218.048 230.494L217.722 219.569C217.716 219.351 217.663 219.137 217.566 218.941C217.469 218.746 217.33 218.574 217.16 218.438L208.66 211.595L219.556 211.269C219.773 211.263 219.987 211.21 220.182 211.112C220.377 211.015 220.548 210.876 220.684 210.705L227.508 202.183L227.834 213.107C227.84 213.324 227.893 213.536 227.99 213.73C228.086 213.923 228.223 214.094 228.391 214.229L236.895 221.082L226 221.408Z"
          fill="white"/>
  </g>

  <!-- Left arc -->
  <g filter="url(#neon-glow)">
    <path d="M195.078 208.746C169.786 199.724 145.105 189.377 124.774 179.274C104.444 169.17 89.57 159.861 82.4067 152.755C75.2434 145.649 76.1805 141.135 85.0762 139.895C93.9719 138.655 110.342 140.758 131.706 145.884"
          stroke="white" stroke-width="5" stroke-linecap="round"/>
  </g>

  <!-- Right arc -->
  <g filter="url(#neon-glow)">
    <path d="M257.981 227.71C272.92 231.225 285.389 233.235 294.418 233.583C303.447 233.931 308.793 232.609 310.04 229.718C311.288 226.827 308.403 222.446 301.611 216.915C294.818 211.384 284.301 204.853 270.876 197.828"
          stroke="white" stroke-width="5" stroke-linecap="round"/>
  </g>
</svg>
