<svg width="215" height="39" viewBox="0 0 215 39" fill="none" xmlns="http://www.w3.org/2000/svg">
<mask id="mask0_900_181" style="mask-type:alpha" maskUnits="userSpaceOnUse" x="0" y="0" width="215" height="39">
<path d="M0.492188 13.4476H4.90465V22.5622C4.90465 27.4993 7.73139 29.7089 12.3507 29.7089C17.2802 29.7089 18.686 28.3011 18.686 28.3011V24.4803C18.686 24.4803 16.9355 25.9112 13.9019 25.9112C11.4544 25.9112 10.5236 24.4956 10.5236 22.1479V13.4476H19.3141V10.0986H10.5236V1.05303L5.04256 5.28427V10.0986H0.492188V13.4476Z" fill="white"/>
<path d="M25.1422 20.3526H43.3227C43.3227 17.2722 42.7367 9.6498 31.9468 9.6498C24.811 9.6498 20.3296 13.9654 20.3296 19.6621C20.3296 26.1528 25.7762 29.7089 31.9468 29.7089C42.1461 29.7089 43.3227 23.5059 43.3227 23.5059H38.7946C38.7946 23.5059 38.3158 25.9112 31.9468 25.9112C27.293 25.9112 25.1767 23.3218 25.1422 20.3526ZM37.3583 16.9692H26.3462C26.3462 16.9692 27.0862 13.2749 31.8434 13.2749C36.8795 13.2749 37.3583 16.9692 37.3583 16.9692Z" fill="white"/>
<path d="M62.9746 23.0264C62.9746 23.0264 62.2366 25.9112 57.1229 25.9112C53.1348 25.9112 50.7639 23.4254 50.7639 19.6621C50.7639 16.2441 53.1062 13.7757 57.0707 13.7757C62.9746 13.7757 62.9746 18.9416 62.9746 18.9416H67.5216C67.5216 18.9416 67.5216 10.0795 57.1229 9.6498C49.9526 9.6498 45.4712 13.9654 45.4712 19.6621C45.4712 26.1528 50.9179 29.7089 57.0884 29.7089C66.9819 29.7089 67.5216 23.0264 67.5216 23.0264H62.9746Z" fill="white"/>
<path d="M76.0409 1.05303L70.353 5.28427V29.2601H76.0409V17.6597C76.0409 17.6597 77.0407 13.4476 81.9704 13.4476C84.6591 13.4476 86.5897 14.6905 86.5897 17.2454V29.2601H92.2432V17.5216C92.2432 12.6535 89.4506 9.6498 83.5217 9.6498C77.0751 9.6498 76.1098 14.3452 76.0409 14.7941V1.05303Z" fill="white"/>
<path d="M120.249 1.05303C123.995 1.05303 127.316 1.73202 130.212 3.09001C133.131 4.42498 135.383 6.28936 136.969 8.68309C138.578 11.0768 139.381 13.7928 139.381 16.831C139.381 18.9946 138.738 20.9856 137.451 22.8039C136.164 24.6222 134.532 26.1068 132.556 27.2577C130.58 28.4085 128.592 29.099 126.592 29.3291H121.766V26.8434L118.56 29.3982C117.825 29.5823 116.94 29.6744 115.906 29.6744C114.389 29.6744 113.022 29.2831 111.804 28.5005C110.609 27.6949 109.667 26.6132 108.977 25.2552C108.311 23.8972 107.977 22.4011 107.977 20.7669C107.977 18.9716 108.517 17.2914 109.597 15.7262C110.678 14.1381 112.022 12.8837 113.631 11.963C115.263 11.0193 116.836 10.5474 118.353 10.5474C120.192 10.5474 121.789 11.1689 123.145 12.4118L124.938 10.2367H126.592V26.9815C129.12 26.383 131.016 25.3588 132.281 23.9087C133.544 22.4356 134.176 20.5943 134.176 18.3847C134.176 15.7838 133.602 13.4246 132.453 11.307C131.303 9.16642 129.534 7.45169 127.144 6.16277C124.754 4.87382 121.789 4.22934 118.25 4.22934C115.102 4.22934 112.275 4.86231 109.77 6.12823C107.265 7.39417 105.312 9.15496 103.909 11.4106C102.508 13.6662 101.807 16.2211 101.807 19.0752C101.807 21.9753 102.347 24.6798 103.427 27.1886C104.507 29.6744 106.173 31.7574 108.425 33.4377C110.678 35.1409 113.482 36.2112 116.836 36.6485L115.975 38.3747C111.769 38.3978 108.207 37.6727 105.288 36.1996C102.393 34.7496 100.21 32.7011 98.7385 30.0542C97.2906 27.4072 96.5669 24.3 96.5669 20.7324C96.5669 17.0036 97.7964 13.6317 100.255 10.6165C102.714 7.6013 105.794 5.24211 109.494 3.53884C113.194 1.8356 116.779 0.983976 120.249 0.983976V1.05303ZM117.836 26.0147C118.526 26.0147 119.169 25.9342 119.767 25.7731C120.387 25.5889 121.054 25.2667 121.766 24.8064V17.487C121.628 16.4283 121.123 15.5651 120.249 14.8976C119.399 14.2071 118.215 13.8619 116.699 13.8619C115.527 13.8619 114.642 14.3107 114.044 15.2084C113.447 16.106 113.148 17.4065 113.148 19.1097C113.148 21.0891 113.55 22.7464 114.355 24.0813C115.159 25.3933 116.319 26.0493 117.836 26.0493V26.0147Z" fill="white"/>
<path d="M159.895 29.2601H165.583V17.5216C165.583 12.6535 162.963 9.6498 156.62 9.6498C149.036 9.6498 148.623 15.5191 148.623 15.5191L147.002 10.0986H143.693V29.2601H149.381V17.6597C149.381 17.6597 150.553 13.4476 155.069 13.4476C158.137 13.4476 159.895 14.6905 159.895 17.2454V29.2601Z" fill="white"/>
<path d="M175.645 28.7422C174.473 31.2626 173.163 33.6448 171.06 33.6448C169.024 33.6448 167.337 33.5758 167.337 33.5758V37.4119C167.337 37.4119 168.545 37.4426 171.611 37.4426C175.197 37.4426 177.368 35.7509 179.644 31.4007L190.847 10.0986H184.608L178.299 23.8742L172.336 10.0986H166.096L175.645 28.7422Z" fill="white"/>
<path d="M198.271 10.0986H192.618V21.8372C192.618 26.7053 195.238 29.7089 201.581 29.7089C209.165 29.7089 209.578 23.8397 209.578 23.8397L211.199 29.2601H214.508V10.0986H208.82V21.6991C208.82 21.6991 207.648 25.9112 203.132 25.9112C200.064 25.9112 198.271 24.6683 198.271 22.1134V10.0986Z" fill="white"/>
<mask id="mask1_900_181" style="mask-type:luminance" maskUnits="userSpaceOnUse" x="0" y="0" width="215" height="39">
<path d="M215 -5.72205e-06H0V38.8673H215V-5.72205e-06Z" fill="white"/>
<path d="M0.492188 13.4476H4.90465V22.5622C4.90465 27.4993 7.73139 29.7089 12.3507 29.7089C17.2802 29.7089 18.686 28.3011 18.686 28.3011V24.4803C18.686 24.4803 16.9355 25.9112 13.9019 25.9112C11.4544 25.9112 10.5236 24.4956 10.5236 22.1479V13.4476H19.3141V10.0986H10.5236V1.05303L5.04256 5.28427V10.0986H0.492188V13.4476Z" fill="black"/>
<path d="M25.1422 20.3526H43.3227C43.3227 17.2722 42.7367 9.6498 31.9468 9.6498C24.811 9.6498 20.3296 13.9654 20.3296 19.6621C20.3296 26.1528 25.7762 29.7089 31.9468 29.7089C42.1461 29.7089 43.3227 23.5059 43.3227 23.5059H38.7946C38.7946 23.5059 38.3158 25.9112 31.9468 25.9112C27.293 25.9112 25.1767 23.3218 25.1422 20.3526ZM37.3583 16.9692H26.3462C26.3462 16.9692 27.0862 13.2749 31.8434 13.2749C36.8795 13.2749 37.3583 16.9692 37.3583 16.9692Z" fill="black"/>
<path d="M62.9746 23.0264C62.9746 23.0264 62.2366 25.9112 57.1229 25.9112C53.1348 25.9112 50.7639 23.4254 50.7639 19.6621C50.7639 16.2441 53.1062 13.7757 57.0707 13.7757C62.9746 13.7757 62.9746 18.9416 62.9746 18.9416H67.5216C67.5216 18.9416 67.5216 10.0795 57.1229 9.6498C49.9526 9.6498 45.4712 13.9654 45.4712 19.6621C45.4712 26.1528 50.9179 29.7089 57.0884 29.7089C66.9819 29.7089 67.5216 23.0264 67.5216 23.0264H62.9746Z" fill="black"/>
<path d="M76.0409 1.05303L70.353 5.28427V29.2601H76.0409V17.6597C76.0409 17.6597 77.0407 13.4476 81.9704 13.4476C84.6591 13.4476 86.5897 14.6905 86.5897 17.2454V29.2601H92.2432V17.5216C92.2432 12.6535 89.4506 9.6498 83.5217 9.6498C77.0751 9.6498 76.1098 14.3452 76.0409 14.7941V1.05303Z" fill="black"/>
<path d="M120.249 1.05303C123.995 1.05303 127.316 1.73202 130.212 3.09001C133.131 4.42498 135.383 6.28936 136.969 8.68309C138.578 11.0768 139.381 13.7928 139.381 16.831C139.381 18.9946 138.738 20.9856 137.451 22.8039C136.164 24.6222 134.532 26.1068 132.556 27.2577C130.58 28.4085 128.592 29.099 126.592 29.3291H121.766V26.8434L118.56 29.3982C117.825 29.5823 116.94 29.6744 115.906 29.6744C114.389 29.6744 113.022 29.2831 111.804 28.5005C110.609 27.6949 109.667 26.6132 108.977 25.2552C108.311 23.8972 107.977 22.4011 107.977 20.7669C107.977 18.9716 108.517 17.2914 109.597 15.7262C110.678 14.1381 112.022 12.8837 113.631 11.963C115.263 11.0193 116.836 10.5474 118.353 10.5474C120.192 10.5474 121.789 11.1689 123.145 12.4118L124.938 10.2367H126.592V26.9815C129.12 26.383 131.016 25.3588 132.281 23.9087C133.544 22.4356 134.176 20.5943 134.176 18.3847C134.176 15.7838 133.602 13.4246 132.453 11.307C131.303 9.16642 129.534 7.45169 127.144 6.16277C124.754 4.87382 121.789 4.22934 118.25 4.22934C115.102 4.22934 112.275 4.86231 109.77 6.12823C107.265 7.39417 105.312 9.15496 103.909 11.4106C102.508 13.6662 101.807 16.2211 101.807 19.0752C101.807 21.9753 102.347 24.6798 103.427 27.1886C104.507 29.6744 106.173 31.7574 108.425 33.4377C110.678 35.1409 113.482 36.2112 116.836 36.6485L115.975 38.3747C111.769 38.3978 108.207 37.6727 105.288 36.1996C102.393 34.7496 100.21 32.7011 98.7385 30.0542C97.2906 27.4072 96.5669 24.3 96.5669 20.7324C96.5669 17.0036 97.7964 13.6317 100.255 10.6165C102.714 7.6013 105.794 5.24211 109.494 3.53884C113.194 1.8356 116.779 0.983976 120.249 0.983976V1.05303ZM117.836 26.0147C118.526 26.0147 119.169 25.9342 119.767 25.7731C120.387 25.5889 121.054 25.2667 121.766 24.8064V17.487C121.628 16.4283 121.123 15.5651 120.249 14.8976C119.399 14.2071 118.215 13.8619 116.699 13.8619C115.527 13.8619 114.642 14.3107 114.044 15.2084C113.447 16.106 113.148 17.4065 113.148 19.1097C113.148 21.0891 113.55 22.7464 114.355 24.0813C115.159 25.3933 116.319 26.0493 117.836 26.0493V26.0147Z" fill="black"/>
<path d="M159.895 29.2601H165.583V17.5216C165.583 12.6535 162.963 9.6498 156.62 9.6498C149.036 9.6498 148.623 15.5191 148.623 15.5191L147.002 10.0986H143.693V29.2601H149.381V17.6597C149.381 17.6597 150.553 13.4476 155.069 13.4476C158.137 13.4476 159.895 14.6905 159.895 17.2454V29.2601Z" fill="black"/>
<path d="M175.645 28.7422C174.473 31.2626 173.163 33.6448 171.06 33.6448C169.024 33.6448 167.337 33.5758 167.337 33.5758V37.4119C167.337 37.4119 168.545 37.4426 171.611 37.4426C175.197 37.4426 177.368 35.7509 179.644 31.4007L190.847 10.0986H184.608L178.299 23.8742L172.336 10.0986H166.096L175.645 28.7422Z" fill="black"/>
<path d="M198.271 10.0986H192.618V21.8372C192.618 26.7053 195.238 29.7089 201.581 29.7089C209.165 29.7089 209.578 23.8397 209.578 23.8397L211.199 29.2601H214.508V10.0986H208.82V21.6991C208.82 21.6991 207.648 25.9112 203.132 25.9112C200.064 25.9112 198.271 24.6683 198.271 22.1134V10.0986Z" fill="black"/>
</mask>
<g mask="url(#mask1_900_181)">
<path d="M0.492188 13.4476H4.90465V22.5622C4.90465 27.4993 7.73139 29.7089 12.3507 29.7089C17.2802 29.7089 18.686 28.3011 18.686 28.3011V24.4803C18.686 24.4803 16.9355 25.9112 13.9019 25.9112C11.4544 25.9112 10.5236 24.4956 10.5236 22.1479V13.4476H19.3141V10.0986H10.5236V1.05303L5.04256 5.28427V10.0986H0.492188V13.4476Z" stroke="white" stroke-width="3"/>
</g>
<mask id="mask2_900_181" style="mask-type:luminance" maskUnits="userSpaceOnUse" x="0" y="0" width="215" height="39">
<path d="M215 -5.72205e-06H0V38.8673H215V-5.72205e-06Z" fill="white"/>
<path d="M0.492188 13.4476H4.90465V22.5622C4.90465 27.4993 7.73139 29.7089 12.3507 29.7089C17.2802 29.7089 18.686 28.3011 18.686 28.3011V24.4803C18.686 24.4803 16.9355 25.9112 13.9019 25.9112C11.4544 25.9112 10.5236 24.4956 10.5236 22.1479V13.4476H19.3141V10.0986H10.5236V1.05303L5.04256 5.28427V10.0986H0.492188V13.4476Z" fill="black"/>
<path d="M25.1422 20.3526H43.3227C43.3227 17.2722 42.7367 9.6498 31.9468 9.6498C24.811 9.6498 20.3296 13.9654 20.3296 19.6621C20.3296 26.1528 25.7762 29.7089 31.9468 29.7089C42.1461 29.7089 43.3227 23.5059 43.3227 23.5059H38.7946C38.7946 23.5059 38.3158 25.9112 31.9468 25.9112C27.293 25.9112 25.1767 23.3218 25.1422 20.3526ZM37.3583 16.9692H26.3462C26.3462 16.9692 27.0862 13.2749 31.8434 13.2749C36.8795 13.2749 37.3583 16.9692 37.3583 16.9692Z" fill="black"/>
<path d="M62.9746 23.0264C62.9746 23.0264 62.2366 25.9112 57.1229 25.9112C53.1348 25.9112 50.7639 23.4254 50.7639 19.6621C50.7639 16.2441 53.1062 13.7757 57.0707 13.7757C62.9746 13.7757 62.9746 18.9416 62.9746 18.9416H67.5216C67.5216 18.9416 67.5216 10.0795 57.1229 9.6498C49.9526 9.6498 45.4712 13.9654 45.4712 19.6621C45.4712 26.1528 50.9179 29.7089 57.0884 29.7089C66.9819 29.7089 67.5216 23.0264 67.5216 23.0264H62.9746Z" fill="black"/>
<path d="M76.0409 1.05303L70.353 5.28427V29.2601H76.0409V17.6597C76.0409 17.6597 77.0407 13.4476 81.9704 13.4476C84.6591 13.4476 86.5897 14.6905 86.5897 17.2454V29.2601H92.2432V17.5216C92.2432 12.6535 89.4506 9.6498 83.5217 9.6498C77.0751 9.6498 76.1098 14.3452 76.0409 14.7941V1.05303Z" fill="black"/>
<path d="M120.249 1.05303C123.995 1.05303 127.316 1.73202 130.212 3.09001C133.131 4.42498 135.383 6.28936 136.969 8.68309C138.578 11.0768 139.381 13.7928 139.381 16.831C139.381 18.9946 138.738 20.9856 137.451 22.8039C136.164 24.6222 134.532 26.1068 132.556 27.2577C130.58 28.4085 128.592 29.099 126.592 29.3291H121.766V26.8434L118.56 29.3982C117.825 29.5823 116.94 29.6744 115.906 29.6744C114.389 29.6744 113.022 29.2831 111.804 28.5005C110.609 27.6949 109.667 26.6132 108.977 25.2552C108.311 23.8972 107.977 22.4011 107.977 20.7669C107.977 18.9716 108.517 17.2914 109.597 15.7262C110.678 14.1381 112.022 12.8837 113.631 11.963C115.263 11.0193 116.836 10.5474 118.353 10.5474C120.192 10.5474 121.789 11.1689 123.145 12.4118L124.938 10.2367H126.592V26.9815C129.12 26.383 131.016 25.3588 132.281 23.9087C133.544 22.4356 134.176 20.5943 134.176 18.3847C134.176 15.7838 133.602 13.4246 132.453 11.307C131.303 9.16642 129.534 7.45169 127.144 6.16277C124.754 4.87382 121.789 4.22934 118.25 4.22934C115.102 4.22934 112.275 4.86231 109.77 6.12823C107.265 7.39417 105.312 9.15496 103.909 11.4106C102.508 13.6662 101.807 16.2211 101.807 19.0752C101.807 21.9753 102.347 24.6798 103.427 27.1886C104.507 29.6744 106.173 31.7574 108.425 33.4377C110.678 35.1409 113.482 36.2112 116.836 36.6485L115.975 38.3747C111.769 38.3978 108.207 37.6727 105.288 36.1996C102.393 34.7496 100.21 32.7011 98.7385 30.0542C97.2906 27.4072 96.5669 24.3 96.5669 20.7324C96.5669 17.0036 97.7964 13.6317 100.255 10.6165C102.714 7.6013 105.794 5.24211 109.494 3.53884C113.194 1.8356 116.779 0.983976 120.249 0.983976V1.05303ZM117.836 26.0147C118.526 26.0147 119.169 25.9342 119.767 25.7731C120.387 25.5889 121.054 25.2667 121.766 24.8064V17.487C121.628 16.4283 121.123 15.5651 120.249 14.8976C119.399 14.2071 118.215 13.8619 116.699 13.8619C115.527 13.8619 114.642 14.3107 114.044 15.2084C113.447 16.106 113.148 17.4065 113.148 19.1097C113.148 21.0891 113.55 22.7464 114.355 24.0813C115.159 25.3933 116.319 26.0493 117.836 26.0493V26.0147Z" fill="black"/>
<path d="M159.895 29.2601H165.583V17.5216C165.583 12.6535 162.963 9.6498 156.62 9.6498C149.036 9.6498 148.623 15.5191 148.623 15.5191L147.002 10.0986H143.693V29.2601H149.381V17.6597C149.381 17.6597 150.553 13.4476 155.069 13.4476C158.137 13.4476 159.895 14.6905 159.895 17.2454V29.2601Z" fill="black"/>
<path d="M175.645 28.7422C174.473 31.2626 173.163 33.6448 171.06 33.6448C169.024 33.6448 167.337 33.5758 167.337 33.5758V37.4119C167.337 37.4119 168.545 37.4426 171.611 37.4426C175.197 37.4426 177.368 35.7509 179.644 31.4007L190.847 10.0986H184.608L178.299 23.8742L172.336 10.0986H166.096L175.645 28.7422Z" fill="black"/>
<path d="M198.271 10.0986H192.618V21.8372C192.618 26.7053 195.238 29.7089 201.581 29.7089C209.165 29.7089 209.578 23.8397 209.578 23.8397L211.199 29.2601H214.508V10.0986H208.82V21.6991C208.82 21.6991 207.648 25.9112 203.132 25.9112C200.064 25.9112 198.271 24.6683 198.271 22.1134V10.0986Z" fill="black"/>
</mask>
<g mask="url(#mask2_900_181)">
<path d="M25.1422 20.3526H43.3227C43.3227 17.2722 42.7367 9.6498 31.9468 9.6498C24.811 9.6498 20.3296 13.9654 20.3296 19.6621C20.3296 26.1528 25.7762 29.7089 31.9468 29.7089C42.1461 29.7089 43.3227 23.5059 43.3227 23.5059H38.7946C38.7946 23.5059 38.3158 25.9112 31.9468 25.9112C27.293 25.9112 25.1767 23.3218 25.1422 20.3526ZM37.3583 16.9692H26.3462C26.3462 16.9692 27.0862 13.2749 31.8434 13.2749C36.8795 13.2749 37.3583 16.9692 37.3583 16.9692Z" stroke="white" stroke-width="3"/>
</g>
<mask id="mask3_900_181" style="mask-type:luminance" maskUnits="userSpaceOnUse" x="0" y="0" width="215" height="39">
<path d="M215 -5.72205e-06H0V38.8673H215V-5.72205e-06Z" fill="white"/>
<path d="M0.492188 13.4476H4.90465V22.5622C4.90465 27.4993 7.73139 29.7089 12.3507 29.7089C17.2802 29.7089 18.686 28.3011 18.686 28.3011V24.4803C18.686 24.4803 16.9355 25.9112 13.9019 25.9112C11.4544 25.9112 10.5236 24.4956 10.5236 22.1479V13.4476H19.3141V10.0986H10.5236V1.05303L5.04256 5.28427V10.0986H0.492188V13.4476Z" fill="black"/>
<path d="M25.1422 20.3526H43.3227C43.3227 17.2722 42.7367 9.6498 31.9468 9.6498C24.811 9.6498 20.3296 13.9654 20.3296 19.6621C20.3296 26.1528 25.7762 29.7089 31.9468 29.7089C42.1461 29.7089 43.3227 23.5059 43.3227 23.5059H38.7946C38.7946 23.5059 38.3158 25.9112 31.9468 25.9112C27.293 25.9112 25.1767 23.3218 25.1422 20.3526ZM37.3583 16.9692H26.3462C26.3462 16.9692 27.0862 13.2749 31.8434 13.2749C36.8795 13.2749 37.3583 16.9692 37.3583 16.9692Z" fill="black"/>
<path d="M62.9746 23.0264C62.9746 23.0264 62.2366 25.9112 57.1229 25.9112C53.1348 25.9112 50.7639 23.4254 50.7639 19.6621C50.7639 16.2441 53.1062 13.7757 57.0707 13.7757C62.9746 13.7757 62.9746 18.9416 62.9746 18.9416H67.5216C67.5216 18.9416 67.5216 10.0795 57.1229 9.6498C49.9526 9.6498 45.4712 13.9654 45.4712 19.6621C45.4712 26.1528 50.9179 29.7089 57.0884 29.7089C66.9819 29.7089 67.5216 23.0264 67.5216 23.0264H62.9746Z" fill="black"/>
<path d="M76.0409 1.05303L70.353 5.28427V29.2601H76.0409V17.6597C76.0409 17.6597 77.0407 13.4476 81.9704 13.4476C84.6591 13.4476 86.5897 14.6905 86.5897 17.2454V29.2601H92.2432V17.5216C92.2432 12.6535 89.4506 9.6498 83.5217 9.6498C77.0751 9.6498 76.1098 14.3452 76.0409 14.7941V1.05303Z" fill="black"/>
<path d="M120.249 1.05303C123.995 1.05303 127.316 1.73202 130.212 3.09001C133.131 4.42498 135.383 6.28936 136.969 8.68309C138.578 11.0768 139.381 13.7928 139.381 16.831C139.381 18.9946 138.738 20.9856 137.451 22.8039C136.164 24.6222 134.532 26.1068 132.556 27.2577C130.58 28.4085 128.592 29.099 126.592 29.3291H121.766V26.8434L118.56 29.3982C117.825 29.5823 116.94 29.6744 115.906 29.6744C114.389 29.6744 113.022 29.2831 111.804 28.5005C110.609 27.6949 109.667 26.6132 108.977 25.2552C108.311 23.8972 107.977 22.4011 107.977 20.7669C107.977 18.9716 108.517 17.2914 109.597 15.7262C110.678 14.1381 112.022 12.8837 113.631 11.963C115.263 11.0193 116.836 10.5474 118.353 10.5474C120.192 10.5474 121.789 11.1689 123.145 12.4118L124.938 10.2367H126.592V26.9815C129.12 26.383 131.016 25.3588 132.281 23.9087C133.544 22.4356 134.176 20.5943 134.176 18.3847C134.176 15.7838 133.602 13.4246 132.453 11.307C131.303 9.16642 129.534 7.45169 127.144 6.16277C124.754 4.87382 121.789 4.22934 118.25 4.22934C115.102 4.22934 112.275 4.86231 109.77 6.12823C107.265 7.39417 105.312 9.15496 103.909 11.4106C102.508 13.6662 101.807 16.2211 101.807 19.0752C101.807 21.9753 102.347 24.6798 103.427 27.1886C104.507 29.6744 106.173 31.7574 108.425 33.4377C110.678 35.1409 113.482 36.2112 116.836 36.6485L115.975 38.3747C111.769 38.3978 108.207 37.6727 105.288 36.1996C102.393 34.7496 100.21 32.7011 98.7385 30.0542C97.2906 27.4072 96.5669 24.3 96.5669 20.7324C96.5669 17.0036 97.7964 13.6317 100.255 10.6165C102.714 7.6013 105.794 5.24211 109.494 3.53884C113.194 1.8356 116.779 0.983976 120.249 0.983976V1.05303ZM117.836 26.0147C118.526 26.0147 119.169 25.9342 119.767 25.7731C120.387 25.5889 121.054 25.2667 121.766 24.8064V17.487C121.628 16.4283 121.123 15.5651 120.249 14.8976C119.399 14.2071 118.215 13.8619 116.699 13.8619C115.527 13.8619 114.642 14.3107 114.044 15.2084C113.447 16.106 113.148 17.4065 113.148 19.1097C113.148 21.0891 113.55 22.7464 114.355 24.0813C115.159 25.3933 116.319 26.0493 117.836 26.0493V26.0147Z" fill="black"/>
<path d="M159.895 29.2601H165.583V17.5216C165.583 12.6535 162.963 9.6498 156.62 9.6498C149.036 9.6498 148.623 15.5191 148.623 15.5191L147.002 10.0986H143.693V29.2601H149.381V17.6597C149.381 17.6597 150.553 13.4476 155.069 13.4476C158.137 13.4476 159.895 14.6905 159.895 17.2454V29.2601Z" fill="black"/>
<path d="M175.645 28.7422C174.473 31.2626 173.163 33.6448 171.06 33.6448C169.024 33.6448 167.337 33.5758 167.337 33.5758V37.4119C167.337 37.4119 168.545 37.4426 171.611 37.4426C175.197 37.4426 177.368 35.7509 179.644 31.4007L190.847 10.0986H184.608L178.299 23.8742L172.336 10.0986H166.096L175.645 28.7422Z" fill="black"/>
<path d="M198.271 10.0986H192.618V21.8372C192.618 26.7053 195.238 29.7089 201.581 29.7089C209.165 29.7089 209.578 23.8397 209.578 23.8397L211.199 29.2601H214.508V10.0986H208.82V21.6991C208.82 21.6991 207.648 25.9112 203.132 25.9112C200.064 25.9112 198.271 24.6683 198.271 22.1134V10.0986Z" fill="black"/>
</mask>
<g mask="url(#mask3_900_181)">
<path d="M62.9746 23.0264C62.9746 23.0264 62.2366 25.9112 57.1229 25.9112C53.1348 25.9112 50.7639 23.4254 50.7639 19.6621C50.7639 16.2441 53.1062 13.7757 57.0707 13.7757C62.9746 13.7757 62.9746 18.9416 62.9746 18.9416H67.5216C67.5216 18.9416 67.5216 10.0795 57.1229 9.6498C49.9526 9.6498 45.4712 13.9654 45.4712 19.6621C45.4712 26.1528 50.9179 29.7089 57.0884 29.7089C66.9819 29.7089 67.5216 23.0264 67.5216 23.0264H62.9746Z" stroke="white" stroke-width="3"/>
</g>
<mask id="mask4_900_181" style="mask-type:luminance" maskUnits="userSpaceOnUse" x="0" y="0" width="215" height="39">
<path d="M215 -5.72205e-06H0V38.8673H215V-5.72205e-06Z" fill="white"/>
<path d="M0.492188 13.4476H4.90465V22.5622C4.90465 27.4993 7.73139 29.7089 12.3507 29.7089C17.2802 29.7089 18.686 28.3011 18.686 28.3011V24.4803C18.686 24.4803 16.9355 25.9112 13.9019 25.9112C11.4544 25.9112 10.5236 24.4956 10.5236 22.1479V13.4476H19.3141V10.0986H10.5236V1.05303L5.04256 5.28427V10.0986H0.492188V13.4476Z" fill="black"/>
<path d="M25.1422 20.3526H43.3227C43.3227 17.2722 42.7367 9.6498 31.9468 9.6498C24.811 9.6498 20.3296 13.9654 20.3296 19.6621C20.3296 26.1528 25.7762 29.7089 31.9468 29.7089C42.1461 29.7089 43.3227 23.5059 43.3227 23.5059H38.7946C38.7946 23.5059 38.3158 25.9112 31.9468 25.9112C27.293 25.9112 25.1767 23.3218 25.1422 20.3526ZM37.3583 16.9692H26.3462C26.3462 16.9692 27.0862 13.2749 31.8434 13.2749C36.8795 13.2749 37.3583 16.9692 37.3583 16.9692Z" fill="black"/>
<path d="M62.9746 23.0264C62.9746 23.0264 62.2366 25.9112 57.1229 25.9112C53.1348 25.9112 50.7639 23.4254 50.7639 19.6621C50.7639 16.2441 53.1062 13.7757 57.0707 13.7757C62.9746 13.7757 62.9746 18.9416 62.9746 18.9416H67.5216C67.5216 18.9416 67.5216 10.0795 57.1229 9.6498C49.9526 9.6498 45.4712 13.9654 45.4712 19.6621C45.4712 26.1528 50.9179 29.7089 57.0884 29.7089C66.9819 29.7089 67.5216 23.0264 67.5216 23.0264H62.9746Z" fill="black"/>
<path d="M76.0409 1.05303L70.353 5.28427V29.2601H76.0409V17.6597C76.0409 17.6597 77.0407 13.4476 81.9704 13.4476C84.6591 13.4476 86.5897 14.6905 86.5897 17.2454V29.2601H92.2432V17.5216C92.2432 12.6535 89.4506 9.6498 83.5217 9.6498C77.0751 9.6498 76.1098 14.3452 76.0409 14.7941V1.05303Z" fill="black"/>
<path d="M120.249 1.05303C123.995 1.05303 127.316 1.73202 130.212 3.09001C133.131 4.42498 135.383 6.28936 136.969 8.68309C138.578 11.0768 139.381 13.7928 139.381 16.831C139.381 18.9946 138.738 20.9856 137.451 22.8039C136.164 24.6222 134.532 26.1068 132.556 27.2577C130.58 28.4085 128.592 29.099 126.592 29.3291H121.766V26.8434L118.56 29.3982C117.825 29.5823 116.94 29.6744 115.906 29.6744C114.389 29.6744 113.022 29.2831 111.804 28.5005C110.609 27.6949 109.667 26.6132 108.977 25.2552C108.311 23.8972 107.977 22.4011 107.977 20.7669C107.977 18.9716 108.517 17.2914 109.597 15.7262C110.678 14.1381 112.022 12.8837 113.631 11.963C115.263 11.0193 116.836 10.5474 118.353 10.5474C120.192 10.5474 121.789 11.1689 123.145 12.4118L124.938 10.2367H126.592V26.9815C129.12 26.383 131.016 25.3588 132.281 23.9087C133.544 22.4356 134.176 20.5943 134.176 18.3847C134.176 15.7838 133.602 13.4246 132.453 11.307C131.303 9.16642 129.534 7.45169 127.144 6.16277C124.754 4.87382 121.789 4.22934 118.25 4.22934C115.102 4.22934 112.275 4.86231 109.77 6.12823C107.265 7.39417 105.312 9.15496 103.909 11.4106C102.508 13.6662 101.807 16.2211 101.807 19.0752C101.807 21.9753 102.347 24.6798 103.427 27.1886C104.507 29.6744 106.173 31.7574 108.425 33.4377C110.678 35.1409 113.482 36.2112 116.836 36.6485L115.975 38.3747C111.769 38.3978 108.207 37.6727 105.288 36.1996C102.393 34.7496 100.21 32.7011 98.7385 30.0542C97.2906 27.4072 96.5669 24.3 96.5669 20.7324C96.5669 17.0036 97.7964 13.6317 100.255 10.6165C102.714 7.6013 105.794 5.24211 109.494 3.53884C113.194 1.8356 116.779 0.983976 120.249 0.983976V1.05303ZM117.836 26.0147C118.526 26.0147 119.169 25.9342 119.767 25.7731C120.387 25.5889 121.054 25.2667 121.766 24.8064V17.487C121.628 16.4283 121.123 15.5651 120.249 14.8976C119.399 14.2071 118.215 13.8619 116.699 13.8619C115.527 13.8619 114.642 14.3107 114.044 15.2084C113.447 16.106 113.148 17.4065 113.148 19.1097C113.148 21.0891 113.55 22.7464 114.355 24.0813C115.159 25.3933 116.319 26.0493 117.836 26.0493V26.0147Z" fill="black"/>
<path d="M159.895 29.2601H165.583V17.5216C165.583 12.6535 162.963 9.6498 156.62 9.6498C149.036 9.6498 148.623 15.5191 148.623 15.5191L147.002 10.0986H143.693V29.2601H149.381V17.6597C149.381 17.6597 150.553 13.4476 155.069 13.4476C158.137 13.4476 159.895 14.6905 159.895 17.2454V29.2601Z" fill="black"/>
<path d="M175.645 28.7422C174.473 31.2626 173.163 33.6448 171.06 33.6448C169.024 33.6448 167.337 33.5758 167.337 33.5758V37.4119C167.337 37.4119 168.545 37.4426 171.611 37.4426C175.197 37.4426 177.368 35.7509 179.644 31.4007L190.847 10.0986H184.608L178.299 23.8742L172.336 10.0986H166.096L175.645 28.7422Z" fill="black"/>
<path d="M198.271 10.0986H192.618V21.8372C192.618 26.7053 195.238 29.7089 201.581 29.7089C209.165 29.7089 209.578 23.8397 209.578 23.8397L211.199 29.2601H214.508V10.0986H208.82V21.6991C208.82 21.6991 207.648 25.9112 203.132 25.9112C200.064 25.9112 198.271 24.6683 198.271 22.1134V10.0986Z" fill="black"/>
</mask>
<g mask="url(#mask4_900_181)">
<path d="M76.0409 1.05303L70.353 5.28427V29.2601H76.0409V17.6597C76.0409 17.6597 77.0407 13.4476 81.9704 13.4476C84.6591 13.4476 86.5897 14.6905 86.5897 17.2454V29.2601H92.2432V17.5216C92.2432 12.6535 89.4506 9.6498 83.5217 9.6498C77.0751 9.6498 76.1098 14.3452 76.0409 14.7941V1.05303Z" stroke="white" stroke-width="3"/>
</g>
<mask id="mask5_900_181" style="mask-type:luminance" maskUnits="userSpaceOnUse" x="0" y="0" width="215" height="39">
<path d="M215 -5.72205e-06H0V38.8673H215V-5.72205e-06Z" fill="white"/>
<path d="M0.492188 13.4476H4.90465V22.5622C4.90465 27.4993 7.73139 29.7089 12.3507 29.7089C17.2802 29.7089 18.686 28.3011 18.686 28.3011V24.4803C18.686 24.4803 16.9355 25.9112 13.9019 25.9112C11.4544 25.9112 10.5236 24.4956 10.5236 22.1479V13.4476H19.3141V10.0986H10.5236V1.05303L5.04256 5.28427V10.0986H0.492188V13.4476Z" fill="black"/>
<path d="M25.1422 20.3526H43.3227C43.3227 17.2722 42.7367 9.6498 31.9468 9.6498C24.811 9.6498 20.3296 13.9654 20.3296 19.6621C20.3296 26.1528 25.7762 29.7089 31.9468 29.7089C42.1461 29.7089 43.3227 23.5059 43.3227 23.5059H38.7946C38.7946 23.5059 38.3158 25.9112 31.9468 25.9112C27.293 25.9112 25.1767 23.3218 25.1422 20.3526ZM37.3583 16.9692H26.3462C26.3462 16.9692 27.0862 13.2749 31.8434 13.2749C36.8795 13.2749 37.3583 16.9692 37.3583 16.9692Z" fill="black"/>
<path d="M62.9746 23.0264C62.9746 23.0264 62.2366 25.9112 57.1229 25.9112C53.1348 25.9112 50.7639 23.4254 50.7639 19.6621C50.7639 16.2441 53.1062 13.7757 57.0707 13.7757C62.9746 13.7757 62.9746 18.9416 62.9746 18.9416H67.5216C67.5216 18.9416 67.5216 10.0795 57.1229 9.6498C49.9526 9.6498 45.4712 13.9654 45.4712 19.6621C45.4712 26.1528 50.9179 29.7089 57.0884 29.7089C66.9819 29.7089 67.5216 23.0264 67.5216 23.0264H62.9746Z" fill="black"/>
<path d="M76.0409 1.05303L70.353 5.28427V29.2601H76.0409V17.6597C76.0409 17.6597 77.0407 13.4476 81.9704 13.4476C84.6591 13.4476 86.5897 14.6905 86.5897 17.2454V29.2601H92.2432V17.5216C92.2432 12.6535 89.4506 9.6498 83.5217 9.6498C77.0751 9.6498 76.1098 14.3452 76.0409 14.7941V1.05303Z" fill="black"/>
<path d="M120.249 1.05303C123.995 1.05303 127.316 1.73202 130.212 3.09001C133.131 4.42498 135.383 6.28936 136.969 8.68309C138.578 11.0768 139.381 13.7928 139.381 16.831C139.381 18.9946 138.738 20.9856 137.451 22.8039C136.164 24.6222 134.532 26.1068 132.556 27.2577C130.58 28.4085 128.592 29.099 126.592 29.3291H121.766V26.8434L118.56 29.3982C117.825 29.5823 116.94 29.6744 115.906 29.6744C114.389 29.6744 113.022 29.2831 111.804 28.5005C110.609 27.6949 109.667 26.6132 108.977 25.2552C108.311 23.8972 107.977 22.4011 107.977 20.7669C107.977 18.9716 108.517 17.2914 109.597 15.7262C110.678 14.1381 112.022 12.8837 113.631 11.963C115.263 11.0193 116.836 10.5474 118.353 10.5474C120.192 10.5474 121.789 11.1689 123.145 12.4118L124.938 10.2367H126.592V26.9815C129.12 26.383 131.016 25.3588 132.281 23.9087C133.544 22.4356 134.176 20.5943 134.176 18.3847C134.176 15.7838 133.602 13.4246 132.453 11.307C131.303 9.16642 129.534 7.45169 127.144 6.16277C124.754 4.87382 121.789 4.22934 118.25 4.22934C115.102 4.22934 112.275 4.86231 109.77 6.12823C107.265 7.39417 105.312 9.15496 103.909 11.4106C102.508 13.6662 101.807 16.2211 101.807 19.0752C101.807 21.9753 102.347 24.6798 103.427 27.1886C104.507 29.6744 106.173 31.7574 108.425 33.4377C110.678 35.1409 113.482 36.2112 116.836 36.6485L115.975 38.3747C111.769 38.3978 108.207 37.6727 105.288 36.1996C102.393 34.7496 100.21 32.7011 98.7385 30.0542C97.2906 27.4072 96.5669 24.3 96.5669 20.7324C96.5669 17.0036 97.7964 13.6317 100.255 10.6165C102.714 7.6013 105.794 5.24211 109.494 3.53884C113.194 1.8356 116.779 0.983976 120.249 0.983976V1.05303ZM117.836 26.0147C118.526 26.0147 119.169 25.9342 119.767 25.7731C120.387 25.5889 121.054 25.2667 121.766 24.8064V17.487C121.628 16.4283 121.123 15.5651 120.249 14.8976C119.399 14.2071 118.215 13.8619 116.699 13.8619C115.527 13.8619 114.642 14.3107 114.044 15.2084C113.447 16.106 113.148 17.4065 113.148 19.1097C113.148 21.0891 113.55 22.7464 114.355 24.0813C115.159 25.3933 116.319 26.0493 117.836 26.0493V26.0147Z" fill="black"/>
<path d="M159.895 29.2601H165.583V17.5216C165.583 12.6535 162.963 9.6498 156.62 9.6498C149.036 9.6498 148.623 15.5191 148.623 15.5191L147.002 10.0986H143.693V29.2601H149.381V17.6597C149.381 17.6597 150.553 13.4476 155.069 13.4476C158.137 13.4476 159.895 14.6905 159.895 17.2454V29.2601Z" fill="black"/>
<path d="M175.645 28.7422C174.473 31.2626 173.163 33.6448 171.06 33.6448C169.024 33.6448 167.337 33.5758 167.337 33.5758V37.4119C167.337 37.4119 168.545 37.4426 171.611 37.4426C175.197 37.4426 177.368 35.7509 179.644 31.4007L190.847 10.0986H184.608L178.299 23.8742L172.336 10.0986H166.096L175.645 28.7422Z" fill="black"/>
<path d="M198.271 10.0986H192.618V21.8372C192.618 26.7053 195.238 29.7089 201.581 29.7089C209.165 29.7089 209.578 23.8397 209.578 23.8397L211.199 29.2601H214.508V10.0986H208.82V21.6991C208.82 21.6991 207.648 25.9112 203.132 25.9112C200.064 25.9112 198.271 24.6683 198.271 22.1134V10.0986Z" fill="black"/>
</mask>
<g mask="url(#mask5_900_181)">
<path d="M120.249 1.05303C123.995 1.05303 127.316 1.73202 130.212 3.09001C133.131 4.42498 135.383 6.28936 136.969 8.68309C138.578 11.0768 139.381 13.7928 139.381 16.831C139.381 18.9946 138.738 20.9856 137.451 22.8039C136.164 24.6222 134.532 26.1068 132.556 27.2577C130.58 28.4085 128.592 29.099 126.592 29.3291H121.766V26.8434L118.56 29.3982C117.825 29.5823 116.94 29.6744 115.906 29.6744C114.389 29.6744 113.022 29.2831 111.804 28.5005C110.609 27.6949 109.667 26.6132 108.977 25.2552C108.311 23.8972 107.977 22.4011 107.977 20.7669C107.977 18.9716 108.517 17.2914 109.597 15.7262C110.678 14.1381 112.022 12.8837 113.631 11.963C115.263 11.0193 116.836 10.5474 118.353 10.5474C120.192 10.5474 121.789 11.1689 123.145 12.4118L124.938 10.2367H126.592V26.9815C129.12 26.383 131.016 25.3588 132.281 23.9087C133.544 22.4356 134.176 20.5943 134.176 18.3847C134.176 15.7838 133.602 13.4246 132.453 11.307C131.303 9.16642 129.534 7.45169 127.144 6.16277C124.754 4.87382 121.789 4.22934 118.25 4.22934C115.102 4.22934 112.275 4.86231 109.77 6.12823C107.265 7.39417 105.312 9.15496 103.909 11.4106C102.508 13.6662 101.807 16.2211 101.807 19.0752C101.807 21.9753 102.347 24.6798 103.427 27.1886C104.507 29.6744 106.173 31.7574 108.425 33.4377C110.678 35.1409 113.482 36.2112 116.836 36.6485L115.975 38.3747C111.769 38.3978 108.207 37.6727 105.288 36.1996C102.393 34.7496 100.21 32.7011 98.7385 30.0542C97.2906 27.4072 96.5669 24.3 96.5669 20.7324C96.5669 17.0036 97.7964 13.6317 100.255 10.6165C102.714 7.6013 105.794 5.24211 109.494 3.53884C113.194 1.8356 116.779 0.983976 120.249 0.983976V1.05303ZM117.836 26.0147C118.526 26.0147 119.169 25.9342 119.767 25.7731C120.387 25.5889 121.054 25.2667 121.766 24.8064V17.487C121.628 16.4283 121.123 15.5651 120.249 14.8976C119.399 14.2071 118.215 13.8619 116.699 13.8619C115.527 13.8619 114.642 14.3107 114.044 15.2084C113.447 16.106 113.148 17.4065 113.148 19.1097C113.148 21.0891 113.55 22.7464 114.355 24.0813C115.159 25.3933 116.319 26.0493 117.836 26.0493V26.0147Z" stroke="white" stroke-width="3"/>
</g>
<mask id="mask6_900_181" style="mask-type:luminance" maskUnits="userSpaceOnUse" x="0" y="0" width="215" height="39">
<path d="M215 -5.72205e-06H0V38.8673H215V-5.72205e-06Z" fill="white"/>
<path d="M0.492188 13.4476H4.90465V22.5622C4.90465 27.4993 7.73139 29.7089 12.3507 29.7089C17.2802 29.7089 18.686 28.3011 18.686 28.3011V24.4803C18.686 24.4803 16.9355 25.9112 13.9019 25.9112C11.4544 25.9112 10.5236 24.4956 10.5236 22.1479V13.4476H19.3141V10.0986H10.5236V1.05303L5.04256 5.28427V10.0986H0.492188V13.4476Z" fill="black"/>
<path d="M25.1422 20.3526H43.3227C43.3227 17.2722 42.7367 9.6498 31.9468 9.6498C24.811 9.6498 20.3296 13.9654 20.3296 19.6621C20.3296 26.1528 25.7762 29.7089 31.9468 29.7089C42.1461 29.7089 43.3227 23.5059 43.3227 23.5059H38.7946C38.7946 23.5059 38.3158 25.9112 31.9468 25.9112C27.293 25.9112 25.1767 23.3218 25.1422 20.3526ZM37.3583 16.9692H26.3462C26.3462 16.9692 27.0862 13.2749 31.8434 13.2749C36.8795 13.2749 37.3583 16.9692 37.3583 16.9692Z" fill="black"/>
<path d="M62.9746 23.0264C62.9746 23.0264 62.2366 25.9112 57.1229 25.9112C53.1348 25.9112 50.7639 23.4254 50.7639 19.6621C50.7639 16.2441 53.1062 13.7757 57.0707 13.7757C62.9746 13.7757 62.9746 18.9416 62.9746 18.9416H67.5216C67.5216 18.9416 67.5216 10.0795 57.1229 9.6498C49.9526 9.6498 45.4712 13.9654 45.4712 19.6621C45.4712 26.1528 50.9179 29.7089 57.0884 29.7089C66.9819 29.7089 67.5216 23.0264 67.5216 23.0264H62.9746Z" fill="black"/>
<path d="M76.0409 1.05303L70.353 5.28427V29.2601H76.0409V17.6597C76.0409 17.6597 77.0407 13.4476 81.9704 13.4476C84.6591 13.4476 86.5897 14.6905 86.5897 17.2454V29.2601H92.2432V17.5216C92.2432 12.6535 89.4506 9.6498 83.5217 9.6498C77.0751 9.6498 76.1098 14.3452 76.0409 14.7941V1.05303Z" fill="black"/>
<path d="M120.249 1.05303C123.995 1.05303 127.316 1.73202 130.212 3.09001C133.131 4.42498 135.383 6.28936 136.969 8.68309C138.578 11.0768 139.381 13.7928 139.381 16.831C139.381 18.9946 138.738 20.9856 137.451 22.8039C136.164 24.6222 134.532 26.1068 132.556 27.2577C130.58 28.4085 128.592 29.099 126.592 29.3291H121.766V26.8434L118.56 29.3982C117.825 29.5823 116.94 29.6744 115.906 29.6744C114.389 29.6744 113.022 29.2831 111.804 28.5005C110.609 27.6949 109.667 26.6132 108.977 25.2552C108.311 23.8972 107.977 22.4011 107.977 20.7669C107.977 18.9716 108.517 17.2914 109.597 15.7262C110.678 14.1381 112.022 12.8837 113.631 11.963C115.263 11.0193 116.836 10.5474 118.353 10.5474C120.192 10.5474 121.789 11.1689 123.145 12.4118L124.938 10.2367H126.592V26.9815C129.12 26.383 131.016 25.3588 132.281 23.9087C133.544 22.4356 134.176 20.5943 134.176 18.3847C134.176 15.7838 133.602 13.4246 132.453 11.307C131.303 9.16642 129.534 7.45169 127.144 6.16277C124.754 4.87382 121.789 4.22934 118.25 4.22934C115.102 4.22934 112.275 4.86231 109.77 6.12823C107.265 7.39417 105.312 9.15496 103.909 11.4106C102.508 13.6662 101.807 16.2211 101.807 19.0752C101.807 21.9753 102.347 24.6798 103.427 27.1886C104.507 29.6744 106.173 31.7574 108.425 33.4377C110.678 35.1409 113.482 36.2112 116.836 36.6485L115.975 38.3747C111.769 38.3978 108.207 37.6727 105.288 36.1996C102.393 34.7496 100.21 32.7011 98.7385 30.0542C97.2906 27.4072 96.5669 24.3 96.5669 20.7324C96.5669 17.0036 97.7964 13.6317 100.255 10.6165C102.714 7.6013 105.794 5.24211 109.494 3.53884C113.194 1.8356 116.779 0.983976 120.249 0.983976V1.05303ZM117.836 26.0147C118.526 26.0147 119.169 25.9342 119.767 25.7731C120.387 25.5889 121.054 25.2667 121.766 24.8064V17.487C121.628 16.4283 121.123 15.5651 120.249 14.8976C119.399 14.2071 118.215 13.8619 116.699 13.8619C115.527 13.8619 114.642 14.3107 114.044 15.2084C113.447 16.106 113.148 17.4065 113.148 19.1097C113.148 21.0891 113.55 22.7464 114.355 24.0813C115.159 25.3933 116.319 26.0493 117.836 26.0493V26.0147Z" fill="black"/>
<path d="M159.895 29.2601H165.583V17.5216C165.583 12.6535 162.963 9.6498 156.62 9.6498C149.036 9.6498 148.623 15.5191 148.623 15.5191L147.002 10.0986H143.693V29.2601H149.381V17.6597C149.381 17.6597 150.553 13.4476 155.069 13.4476C158.137 13.4476 159.895 14.6905 159.895 17.2454V29.2601Z" fill="black"/>
<path d="M175.645 28.7422C174.473 31.2626 173.163 33.6448 171.06 33.6448C169.024 33.6448 167.337 33.5758 167.337 33.5758V37.4119C167.337 37.4119 168.545 37.4426 171.611 37.4426C175.197 37.4426 177.368 35.7509 179.644 31.4007L190.847 10.0986H184.608L178.299 23.8742L172.336 10.0986H166.096L175.645 28.7422Z" fill="black"/>
<path d="M198.271 10.0986H192.618V21.8372C192.618 26.7053 195.238 29.7089 201.581 29.7089C209.165 29.7089 209.578 23.8397 209.578 23.8397L211.199 29.2601H214.508V10.0986H208.82V21.6991C208.82 21.6991 207.648 25.9112 203.132 25.9112C200.064 25.9112 198.271 24.6683 198.271 22.1134V10.0986Z" fill="black"/>
</mask>
<g mask="url(#mask6_900_181)">
<path d="M159.895 29.2601H165.583V17.5216C165.583 12.6535 162.963 9.6498 156.62 9.6498C149.036 9.6498 148.623 15.5191 148.623 15.5191L147.002 10.0986H143.693V29.2601H149.381V17.6597C149.381 17.6597 150.553 13.4476 155.069 13.4476C158.137 13.4476 159.895 14.6905 159.895 17.2454V29.2601Z" stroke="white" stroke-width="3"/>
</g>
<mask id="mask7_900_181" style="mask-type:luminance" maskUnits="userSpaceOnUse" x="0" y="0" width="215" height="39">
<path d="M215 -5.72205e-06H0V38.8673H215V-5.72205e-06Z" fill="white"/>
<path d="M0.492188 13.4476H4.90465V22.5622C4.90465 27.4993 7.73139 29.7089 12.3507 29.7089C17.2802 29.7089 18.686 28.3011 18.686 28.3011V24.4803C18.686 24.4803 16.9355 25.9112 13.9019 25.9112C11.4544 25.9112 10.5236 24.4956 10.5236 22.1479V13.4476H19.3141V10.0986H10.5236V1.05303L5.04256 5.28427V10.0986H0.492188V13.4476Z" fill="black"/>
<path d="M25.1422 20.3526H43.3227C43.3227 17.2722 42.7367 9.6498 31.9468 9.6498C24.811 9.6498 20.3296 13.9654 20.3296 19.6621C20.3296 26.1528 25.7762 29.7089 31.9468 29.7089C42.1461 29.7089 43.3227 23.5059 43.3227 23.5059H38.7946C38.7946 23.5059 38.3158 25.9112 31.9468 25.9112C27.293 25.9112 25.1767 23.3218 25.1422 20.3526ZM37.3583 16.9692H26.3462C26.3462 16.9692 27.0862 13.2749 31.8434 13.2749C36.8795 13.2749 37.3583 16.9692 37.3583 16.9692Z" fill="black"/>
<path d="M62.9746 23.0264C62.9746 23.0264 62.2366 25.9112 57.1229 25.9112C53.1348 25.9112 50.7639 23.4254 50.7639 19.6621C50.7639 16.2441 53.1062 13.7757 57.0707 13.7757C62.9746 13.7757 62.9746 18.9416 62.9746 18.9416H67.5216C67.5216 18.9416 67.5216 10.0795 57.1229 9.6498C49.9526 9.6498 45.4712 13.9654 45.4712 19.6621C45.4712 26.1528 50.9179 29.7089 57.0884 29.7089C66.9819 29.7089 67.5216 23.0264 67.5216 23.0264H62.9746Z" fill="black"/>
<path d="M76.0409 1.05303L70.353 5.28427V29.2601H76.0409V17.6597C76.0409 17.6597 77.0407 13.4476 81.9704 13.4476C84.6591 13.4476 86.5897 14.6905 86.5897 17.2454V29.2601H92.2432V17.5216C92.2432 12.6535 89.4506 9.6498 83.5217 9.6498C77.0751 9.6498 76.1098 14.3452 76.0409 14.7941V1.05303Z" fill="black"/>
<path d="M120.249 1.05303C123.995 1.05303 127.316 1.73202 130.212 3.09001C133.131 4.42498 135.383 6.28936 136.969 8.68309C138.578 11.0768 139.381 13.7928 139.381 16.831C139.381 18.9946 138.738 20.9856 137.451 22.8039C136.164 24.6222 134.532 26.1068 132.556 27.2577C130.58 28.4085 128.592 29.099 126.592 29.3291H121.766V26.8434L118.56 29.3982C117.825 29.5823 116.94 29.6744 115.906 29.6744C114.389 29.6744 113.022 29.2831 111.804 28.5005C110.609 27.6949 109.667 26.6132 108.977 25.2552C108.311 23.8972 107.977 22.4011 107.977 20.7669C107.977 18.9716 108.517 17.2914 109.597 15.7262C110.678 14.1381 112.022 12.8837 113.631 11.963C115.263 11.0193 116.836 10.5474 118.353 10.5474C120.192 10.5474 121.789 11.1689 123.145 12.4118L124.938 10.2367H126.592V26.9815C129.12 26.383 131.016 25.3588 132.281 23.9087C133.544 22.4356 134.176 20.5943 134.176 18.3847C134.176 15.7838 133.602 13.4246 132.453 11.307C131.303 9.16642 129.534 7.45169 127.144 6.16277C124.754 4.87382 121.789 4.22934 118.25 4.22934C115.102 4.22934 112.275 4.86231 109.77 6.12823C107.265 7.39417 105.312 9.15496 103.909 11.4106C102.508 13.6662 101.807 16.2211 101.807 19.0752C101.807 21.9753 102.347 24.6798 103.427 27.1886C104.507 29.6744 106.173 31.7574 108.425 33.4377C110.678 35.1409 113.482 36.2112 116.836 36.6485L115.975 38.3747C111.769 38.3978 108.207 37.6727 105.288 36.1996C102.393 34.7496 100.21 32.7011 98.7385 30.0542C97.2906 27.4072 96.5669 24.3 96.5669 20.7324C96.5669 17.0036 97.7964 13.6317 100.255 10.6165C102.714 7.6013 105.794 5.24211 109.494 3.53884C113.194 1.8356 116.779 0.983976 120.249 0.983976V1.05303ZM117.836 26.0147C118.526 26.0147 119.169 25.9342 119.767 25.7731C120.387 25.5889 121.054 25.2667 121.766 24.8064V17.487C121.628 16.4283 121.123 15.5651 120.249 14.8976C119.399 14.2071 118.215 13.8619 116.699 13.8619C115.527 13.8619 114.642 14.3107 114.044 15.2084C113.447 16.106 113.148 17.4065 113.148 19.1097C113.148 21.0891 113.55 22.7464 114.355 24.0813C115.159 25.3933 116.319 26.0493 117.836 26.0493V26.0147Z" fill="black"/>
<path d="M159.895 29.2601H165.583V17.5216C165.583 12.6535 162.963 9.6498 156.62 9.6498C149.036 9.6498 148.623 15.5191 148.623 15.5191L147.002 10.0986H143.693V29.2601H149.381V17.6597C149.381 17.6597 150.553 13.4476 155.069 13.4476C158.137 13.4476 159.895 14.6905 159.895 17.2454V29.2601Z" fill="black"/>
<path d="M175.645 28.7422C174.473 31.2626 173.163 33.6448 171.06 33.6448C169.024 33.6448 167.337 33.5758 167.337 33.5758V37.4119C167.337 37.4119 168.545 37.4426 171.611 37.4426C175.197 37.4426 177.368 35.7509 179.644 31.4007L190.847 10.0986H184.608L178.299 23.8742L172.336 10.0986H166.096L175.645 28.7422Z" fill="black"/>
<path d="M198.271 10.0986H192.618V21.8372C192.618 26.7053 195.238 29.7089 201.581 29.7089C209.165 29.7089 209.578 23.8397 209.578 23.8397L211.199 29.2601H214.508V10.0986H208.82V21.6991C208.82 21.6991 207.648 25.9112 203.132 25.9112C200.064 25.9112 198.271 24.6683 198.271 22.1134V10.0986Z" fill="black"/>
</mask>
<g mask="url(#mask7_900_181)">
<path d="M175.645 28.7422C174.473 31.2626 173.163 33.6448 171.06 33.6448C169.024 33.6448 167.337 33.5758 167.337 33.5758V37.4119C167.337 37.4119 168.545 37.4426 171.611 37.4426C175.197 37.4426 177.368 35.7509 179.644 31.4007L190.847 10.0986H184.608L178.299 23.8742L172.336 10.0986H166.096L175.645 28.7422Z" stroke="white" stroke-width="3"/>
</g>
<mask id="mask8_900_181" style="mask-type:luminance" maskUnits="userSpaceOnUse" x="0" y="0" width="215" height="39">
<path d="M215 -5.72205e-06H0V38.8673H215V-5.72205e-06Z" fill="white"/>
<path d="M0.492188 13.4476H4.90465V22.5622C4.90465 27.4993 7.73139 29.7089 12.3507 29.7089C17.2802 29.7089 18.686 28.3011 18.686 28.3011V24.4803C18.686 24.4803 16.9355 25.9112 13.9019 25.9112C11.4544 25.9112 10.5236 24.4956 10.5236 22.1479V13.4476H19.3141V10.0986H10.5236V1.05303L5.04256 5.28427V10.0986H0.492188V13.4476Z" fill="black"/>
<path d="M25.1422 20.3526H43.3227C43.3227 17.2722 42.7367 9.6498 31.9468 9.6498C24.811 9.6498 20.3296 13.9654 20.3296 19.6621C20.3296 26.1528 25.7762 29.7089 31.9468 29.7089C42.1461 29.7089 43.3227 23.5059 43.3227 23.5059H38.7946C38.7946 23.5059 38.3158 25.9112 31.9468 25.9112C27.293 25.9112 25.1767 23.3218 25.1422 20.3526ZM37.3583 16.9692H26.3462C26.3462 16.9692 27.0862 13.2749 31.8434 13.2749C36.8795 13.2749 37.3583 16.9692 37.3583 16.9692Z" fill="black"/>
<path d="M62.9746 23.0264C62.9746 23.0264 62.2366 25.9112 57.1229 25.9112C53.1348 25.9112 50.7639 23.4254 50.7639 19.6621C50.7639 16.2441 53.1062 13.7757 57.0707 13.7757C62.9746 13.7757 62.9746 18.9416 62.9746 18.9416H67.5216C67.5216 18.9416 67.5216 10.0795 57.1229 9.6498C49.9526 9.6498 45.4712 13.9654 45.4712 19.6621C45.4712 26.1528 50.9179 29.7089 57.0884 29.7089C66.9819 29.7089 67.5216 23.0264 67.5216 23.0264H62.9746Z" fill="black"/>
<path d="M76.0409 1.05303L70.353 5.28427V29.2601H76.0409V17.6597C76.0409 17.6597 77.0407 13.4476 81.9704 13.4476C84.6591 13.4476 86.5897 14.6905 86.5897 17.2454V29.2601H92.2432V17.5216C92.2432 12.6535 89.4506 9.6498 83.5217 9.6498C77.0751 9.6498 76.1098 14.3452 76.0409 14.7941V1.05303Z" fill="black"/>
<path d="M120.249 1.05303C123.995 1.05303 127.316 1.73202 130.212 3.09001C133.131 4.42498 135.383 6.28936 136.969 8.68309C138.578 11.0768 139.381 13.7928 139.381 16.831C139.381 18.9946 138.738 20.9856 137.451 22.8039C136.164 24.6222 134.532 26.1068 132.556 27.2577C130.58 28.4085 128.592 29.099 126.592 29.3291H121.766V26.8434L118.56 29.3982C117.825 29.5823 116.94 29.6744 115.906 29.6744C114.389 29.6744 113.022 29.2831 111.804 28.5005C110.609 27.6949 109.667 26.6132 108.977 25.2552C108.311 23.8972 107.977 22.4011 107.977 20.7669C107.977 18.9716 108.517 17.2914 109.597 15.7262C110.678 14.1381 112.022 12.8837 113.631 11.963C115.263 11.0193 116.836 10.5474 118.353 10.5474C120.192 10.5474 121.789 11.1689 123.145 12.4118L124.938 10.2367H126.592V26.9815C129.12 26.383 131.016 25.3588 132.281 23.9087C133.544 22.4356 134.176 20.5943 134.176 18.3847C134.176 15.7838 133.602 13.4246 132.453 11.307C131.303 9.16642 129.534 7.45169 127.144 6.16277C124.754 4.87382 121.789 4.22934 118.25 4.22934C115.102 4.22934 112.275 4.86231 109.77 6.12823C107.265 7.39417 105.312 9.15496 103.909 11.4106C102.508 13.6662 101.807 16.2211 101.807 19.0752C101.807 21.9753 102.347 24.6798 103.427 27.1886C104.507 29.6744 106.173 31.7574 108.425 33.4377C110.678 35.1409 113.482 36.2112 116.836 36.6485L115.975 38.3747C111.769 38.3978 108.207 37.6727 105.288 36.1996C102.393 34.7496 100.21 32.7011 98.7385 30.0542C97.2906 27.4072 96.5669 24.3 96.5669 20.7324C96.5669 17.0036 97.7964 13.6317 100.255 10.6165C102.714 7.6013 105.794 5.24211 109.494 3.53884C113.194 1.8356 116.779 0.983976 120.249 0.983976V1.05303ZM117.836 26.0147C118.526 26.0147 119.169 25.9342 119.767 25.7731C120.387 25.5889 121.054 25.2667 121.766 24.8064V17.487C121.628 16.4283 121.123 15.5651 120.249 14.8976C119.399 14.2071 118.215 13.8619 116.699 13.8619C115.527 13.8619 114.642 14.3107 114.044 15.2084C113.447 16.106 113.148 17.4065 113.148 19.1097C113.148 21.0891 113.55 22.7464 114.355 24.0813C115.159 25.3933 116.319 26.0493 117.836 26.0493V26.0147Z" fill="black"/>
<path d="M159.895 29.2601H165.583V17.5216C165.583 12.6535 162.963 9.6498 156.62 9.6498C149.036 9.6498 148.623 15.5191 148.623 15.5191L147.002 10.0986H143.693V29.2601H149.381V17.6597C149.381 17.6597 150.553 13.4476 155.069 13.4476C158.137 13.4476 159.895 14.6905 159.895 17.2454V29.2601Z" fill="black"/>
<path d="M175.645 28.7422C174.473 31.2626 173.163 33.6448 171.06 33.6448C169.024 33.6448 167.337 33.5758 167.337 33.5758V37.4119C167.337 37.4119 168.545 37.4426 171.611 37.4426C175.197 37.4426 177.368 35.7509 179.644 31.4007L190.847 10.0986H184.608L178.299 23.8742L172.336 10.0986H166.096L175.645 28.7422Z" fill="black"/>
<path d="M198.271 10.0986H192.618V21.8372C192.618 26.7053 195.238 29.7089 201.581 29.7089C209.165 29.7089 209.578 23.8397 209.578 23.8397L211.199 29.2601H214.508V10.0986H208.82V21.6991C208.82 21.6991 207.648 25.9112 203.132 25.9112C200.064 25.9112 198.271 24.6683 198.271 22.1134V10.0986Z" fill="black"/>
</mask>
<g mask="url(#mask8_900_181)">
<path d="M198.271 10.0986H192.618V21.8372C192.618 26.7053 195.238 29.7089 201.581 29.7089C209.165 29.7089 209.578 23.8397 209.578 23.8397L211.199 29.2601H214.508V10.0986H208.82V21.6991C208.82 21.6991 207.648 25.9112 203.132 25.9112C200.064 25.9112 198.271 24.6683 198.271 22.1134V10.0986Z" stroke="white" stroke-width="3"/>
</g>
</mask>
<g mask="url(#mask0_900_181)">
<path d="M-20.1714 -111.19H233.696V142.677H-20.1714V-111.19Z" fill="white"/>
</g>
</svg>
